<mxfile host="app.diagrams.net" modified="2021-12-29T02:21:20.028Z" agent="5.0 (Windows NT 10.0; Win64; x64) AppleWebKit/537.36 (KHTML, like Gecko) Chrome/96.0.4664.110 Safari/537.36" etag="vvagd6vWekRn9XWbCFD_" version="15.9.4" type="github">
  <diagram id="uuI894Q_dZWisV19ayU7" name="第 1 页">
    <mxGraphModel dx="1038" dy="491" grid="1" gridSize="10" guides="1" tooltips="1" connect="1" arrows="1" fold="1" page="1" pageScale="1" pageWidth="827" pageHeight="1169" math="0" shadow="0">
      <root>
        <mxCell id="0" />
        <mxCell id="1" parent="0" />
        <mxCell id="kqC6SkzN8LWWIlsdUToC-1" value="" style="rounded=0;whiteSpace=wrap;html=1;" parent="1" vertex="1">
          <mxGeometry x="10" y="10" width="1410" height="710" as="geometry" />
        </mxCell>
        <mxCell id="kqC6SkzN8LWWIlsdUToC-4" value="" style="endArrow=none;dashed=1;html=1;rounded=0;entryX=0.5;entryY=0;entryDx=0;entryDy=0;exitX=0.5;exitY=1;exitDx=0;exitDy=0;startArrow=none;" parent="1" source="OltJJ1d4q_nxjUxmyhaT-2" target="kqC6SkzN8LWWIlsdUToC-1" edge="1">
          <mxGeometry width="50" height="50" relative="1" as="geometry">
            <mxPoint x="745" y="660" as="sourcePoint" />
            <mxPoint x="720" y="370" as="targetPoint" />
          </mxGeometry>
        </mxCell>
        <mxCell id="kqC6SkzN8LWWIlsdUToC-5" value="&lt;h1&gt;云资源监控&lt;/h1&gt;" style="text;html=1;strokeColor=none;fillColor=none;spacing=5;spacingTop=-20;whiteSpace=wrap;overflow=hidden;rounded=0;" parent="1" vertex="1">
          <mxGeometry x="730" y="80" width="150" height="50" as="geometry" />
        </mxCell>
        <mxCell id="kqC6SkzN8LWWIlsdUToC-6" value="容器集群节点数" style="rounded=0;whiteSpace=wrap;html=1;" parent="1" vertex="1">
          <mxGeometry x="775" y="130" width="120" height="40" as="geometry" />
        </mxCell>
        <mxCell id="kqC6SkzN8LWWIlsdUToC-7" value="POD总数&lt;span style=&quot;white-space: pre&quot;&gt; &lt;/span&gt;" style="rounded=0;whiteSpace=wrap;html=1;" parent="1" vertex="1">
          <mxGeometry x="960" y="130" width="120" height="40" as="geometry" />
        </mxCell>
        <mxCell id="kqC6SkzN8LWWIlsdUToC-8" value="&lt;h1&gt;业务监控&lt;/h1&gt;" style="text;html=1;strokeColor=none;fillColor=none;spacing=5;spacingTop=-20;whiteSpace=wrap;overflow=hidden;rounded=0;" parent="1" vertex="1">
          <mxGeometry x="20" y="60" width="150" height="50" as="geometry" />
        </mxCell>
        <mxCell id="kqC6SkzN8LWWIlsdUToC-9" value="容器集群资源池" style="rounded=0;whiteSpace=wrap;html=1;" parent="1" vertex="1">
          <mxGeometry x="775" y="182.5" width="120" height="40" as="geometry" />
        </mxCell>
        <mxCell id="kqC6SkzN8LWWIlsdUToC-11" value="Hut（长城）" style="rounded=0;whiteSpace=wrap;html=1;" parent="1" vertex="1">
          <mxGeometry x="230" y="150" width="120" height="40" as="geometry" />
        </mxCell>
        <mxCell id="kqC6SkzN8LWWIlsdUToC-12" value="APP在线用户数" style="rounded=0;whiteSpace=wrap;html=1;" parent="1" vertex="1">
          <mxGeometry x="10" y="150" width="120" height="40" as="geometry" />
        </mxCell>
        <mxCell id="kqC6SkzN8LWWIlsdUToC-15" value="图拉专线" style="rounded=0;whiteSpace=wrap;html=1;" parent="1" vertex="1">
          <mxGeometry x="760" y="330" width="120" height="40" as="geometry" />
        </mxCell>
        <mxCell id="kqC6SkzN8LWWIlsdUToC-16" value="" style="endArrow=none;dashed=1;html=1;dashPattern=1 3;strokeWidth=2;rounded=0;" parent="1" target="kqC6SkzN8LWWIlsdUToC-1" edge="1">
          <mxGeometry width="50" height="50" relative="1" as="geometry">
            <mxPoint x="715" y="270" as="sourcePoint" />
            <mxPoint x="720" y="370" as="targetPoint" />
            <Array as="points">
              <mxPoint x="1450" y="270" />
            </Array>
          </mxGeometry>
        </mxCell>
        <mxCell id="kqC6SkzN8LWWIlsdUToC-17" value="&lt;h1&gt;网络监控&lt;/h1&gt;" style="text;html=1;strokeColor=none;fillColor=none;spacing=5;spacingTop=-20;whiteSpace=wrap;overflow=hidden;rounded=0;" parent="1" vertex="1">
          <mxGeometry x="760" y="270" width="150" height="50" as="geometry" />
        </mxCell>
        <mxCell id="kqC6SkzN8LWWIlsdUToC-19" value="APN" style="rounded=0;whiteSpace=wrap;html=1;" parent="1" vertex="1">
          <mxGeometry x="760" y="390" width="120" height="40" as="geometry" />
        </mxCell>
        <mxCell id="kqC6SkzN8LWWIlsdUToC-20" value="SMPP短信通道" style="rounded=0;whiteSpace=wrap;html=1;" parent="1" vertex="1">
          <mxGeometry x="760" y="450" width="120" height="40" as="geometry" />
        </mxCell>
        <mxCell id="kqC6SkzN8LWWIlsdUToC-23" value="站点监控" style="rounded=0;whiteSpace=wrap;html=1;" parent="1" vertex="1">
          <mxGeometry x="930" y="330" width="450" height="170" as="geometry" />
        </mxCell>
        <mxCell id="kqC6SkzN8LWWIlsdUToC-24" value="" style="rounded=0;whiteSpace=wrap;html=1;" parent="1" vertex="1">
          <mxGeometry x="10" y="550" width="180" height="160" as="geometry" />
        </mxCell>
        <mxCell id="kqC6SkzN8LWWIlsdUToC-25" value="&lt;h1&gt;返回码大于5xx 次数&lt;/h1&gt;" style="text;html=1;strokeColor=none;fillColor=none;spacing=5;spacingTop=-20;whiteSpace=wrap;overflow=hidden;rounded=0;" parent="1" vertex="1">
          <mxGeometry x="20" y="554.5" width="150" height="65.5" as="geometry" />
        </mxCell>
        <mxCell id="kqC6SkzN8LWWIlsdUToC-26" value="&lt;h1&gt;返回码大于4xx 次数&lt;/h1&gt;" style="text;html=1;strokeColor=none;fillColor=none;spacing=5;spacingTop=-20;whiteSpace=wrap;overflow=hidden;rounded=0;" parent="1" vertex="1">
          <mxGeometry x="20" y="640" width="150" height="60" as="geometry" />
        </mxCell>
        <mxCell id="kqC6SkzN8LWWIlsdUToC-27" value="" style="endArrow=none;dashed=1;html=1;dashPattern=1 3;strokeWidth=2;rounded=0;" parent="1" edge="1">
          <mxGeometry width="50" height="50" relative="1" as="geometry">
            <mxPoint x="10" y="390" as="sourcePoint" />
            <mxPoint x="685" y="395.3061224489795" as="targetPoint" />
            <Array as="points">
              <mxPoint x="715" y="390" />
            </Array>
          </mxGeometry>
        </mxCell>
        <mxCell id="kqC6SkzN8LWWIlsdUToC-28" value="&lt;h1&gt;社区&lt;/h1&gt;" style="text;html=1;strokeColor=none;fillColor=none;spacing=5;spacingTop=-20;whiteSpace=wrap;overflow=hidden;rounded=0;" parent="1" vertex="1">
          <mxGeometry x="20" y="240" width="210" height="50" as="geometry" />
        </mxCell>
        <mxCell id="kqC6SkzN8LWWIlsdUToC-30" value="业务告警列表" style="rounded=0;whiteSpace=wrap;html=1;" parent="1" vertex="1">
          <mxGeometry x="270" y="550" width="340" height="160" as="geometry" />
        </mxCell>
        <mxCell id="kqC6SkzN8LWWIlsdUToC-31" value="云平台告警列表" style="rounded=0;whiteSpace=wrap;html=1;" parent="1" vertex="1">
          <mxGeometry x="1040" y="550" width="340" height="160" as="geometry" />
        </mxCell>
        <mxCell id="kqC6SkzN8LWWIlsdUToC-32" value="" style="endArrow=none;dashed=1;html=1;dashPattern=1 3;strokeWidth=2;rounded=0;" parent="1" edge="1">
          <mxGeometry width="50" height="50" relative="1" as="geometry">
            <mxPoint x="710" y="530" as="sourcePoint" />
            <mxPoint x="1385" y="535.3061224489795" as="targetPoint" />
            <Array as="points">
              <mxPoint x="1415" y="530" />
            </Array>
          </mxGeometry>
        </mxCell>
        <mxCell id="kqC6SkzN8LWWIlsdUToC-33" value="&lt;h1&gt;P0告警 1条&lt;/h1&gt;" style="text;html=1;strokeColor=none;fillColor=none;spacing=5;spacingTop=-20;whiteSpace=wrap;overflow=hidden;rounded=0;" parent="1" vertex="1">
          <mxGeometry x="730" y="540" width="290" height="40" as="geometry" />
        </mxCell>
        <mxCell id="kqC6SkzN8LWWIlsdUToC-34" value="&lt;h1&gt;P1告警 1条&lt;/h1&gt;" style="text;html=1;strokeColor=none;fillColor=none;spacing=5;spacingTop=-20;whiteSpace=wrap;overflow=hidden;rounded=0;" parent="1" vertex="1">
          <mxGeometry x="730" y="585" width="290" height="40" as="geometry" />
        </mxCell>
        <mxCell id="kqC6SkzN8LWWIlsdUToC-35" value="&lt;h1&gt;P2告警 1条&lt;/h1&gt;" style="text;html=1;strokeColor=none;fillColor=none;spacing=5;spacingTop=-20;whiteSpace=wrap;overflow=hidden;rounded=0;" parent="1" vertex="1">
          <mxGeometry x="730" y="625" width="290" height="40" as="geometry" />
        </mxCell>
        <mxCell id="kqC6SkzN8LWWIlsdUToC-36" value="&lt;h1&gt;P3告警 1条&lt;/h1&gt;" style="text;html=1;strokeColor=none;fillColor=none;spacing=5;spacingTop=-20;whiteSpace=wrap;overflow=hidden;rounded=0;" parent="1" vertex="1">
          <mxGeometry x="730" y="670" width="290" height="40" as="geometry" />
        </mxCell>
        <mxCell id="kqC6SkzN8LWWIlsdUToC-38" value="&lt;h1&gt;&lt;br&gt;&lt;/h1&gt;" style="text;html=1;strokeColor=none;fillColor=none;spacing=5;spacingTop=-20;whiteSpace=wrap;overflow=hidden;rounded=0;" parent="1" vertex="1">
          <mxGeometry x="500" y="100" width="200" height="190" as="geometry" />
        </mxCell>
        <mxCell id="kqC6SkzN8LWWIlsdUToC-42" value="验证码登陆次数&lt;br&gt;PKI调用成功/失败" style="rounded=0;whiteSpace=wrap;html=1;" parent="1" vertex="1">
          <mxGeometry x="540" y="100" width="140" height="122.5" as="geometry" />
        </mxCell>
        <mxCell id="kqC6SkzN8LWWIlsdUToC-45" value="" style="endArrow=none;dashed=1;html=1;dashPattern=1 3;strokeWidth=2;rounded=0;" parent="1" edge="1">
          <mxGeometry width="50" height="50" relative="1" as="geometry">
            <mxPoint x="10" y="240" as="sourcePoint" />
            <mxPoint x="685" y="245.30612244897952" as="targetPoint" />
            <Array as="points">
              <mxPoint x="715" y="240" />
            </Array>
          </mxGeometry>
        </mxCell>
        <mxCell id="kqC6SkzN8LWWIlsdUToC-46" value="微服务状态（需要王俊上线GWM-CLOUD-MONITOR）" style="rounded=0;whiteSpace=wrap;html=1;" parent="1" vertex="1">
          <mxGeometry x="960" y="185" width="200" height="37.5" as="geometry" />
        </mxCell>
        <mxCell id="kqC6SkzN8LWWIlsdUToC-53" value="" style="endArrow=none;dashed=1;html=1;dashPattern=1 3;strokeWidth=2;rounded=0;" parent="1" edge="1">
          <mxGeometry width="50" height="50" relative="1" as="geometry">
            <mxPoint x="10" y="534.69" as="sourcePoint" />
            <mxPoint x="684.9999999999995" y="539.9961224489796" as="targetPoint" />
            <Array as="points">
              <mxPoint x="715" y="534.69" />
            </Array>
          </mxGeometry>
        </mxCell>
        <mxCell id="kqC6SkzN8LWWIlsdUToC-55" value="短信发送成功/失败次数" style="rounded=0;whiteSpace=wrap;html=1;" parent="1" vertex="1">
          <mxGeometry x="324" y="70" width="180" height="40" as="geometry" />
        </mxCell>
        <mxCell id="kqC6SkzN8LWWIlsdUToC-56" value="&lt;h1&gt;&lt;font style=&quot;font-size: 20px&quot;&gt;终端状态&lt;/font&gt;&lt;/h1&gt;" style="text;html=1;strokeColor=none;fillColor=none;spacing=5;spacingTop=-20;whiteSpace=wrap;overflow=hidden;rounded=0;" parent="1" vertex="1">
          <mxGeometry x="20" y="100" width="150" height="50" as="geometry" />
        </mxCell>
        <mxCell id="OltJJ1d4q_nxjUxmyhaT-3" value="" style="endArrow=none;dashed=1;html=1;rounded=0;entryX=0.5;entryY=0;entryDx=0;entryDy=0;exitX=0.5;exitY=1;exitDx=0;exitDy=0;" parent="1" source="kqC6SkzN8LWWIlsdUToC-1" target="OltJJ1d4q_nxjUxmyhaT-2" edge="1">
          <mxGeometry width="50" height="50" relative="1" as="geometry">
            <mxPoint x="715" y="720" as="sourcePoint" />
            <mxPoint x="715" y="10" as="targetPoint" />
          </mxGeometry>
        </mxCell>
        <mxCell id="OltJJ1d4q_nxjUxmyhaT-2" value="&lt;h1 style=&quot;text-align: left&quot;&gt;东盟站点实时监控&lt;/h1&gt;" style="rounded=0;whiteSpace=wrap;html=1;" parent="1" vertex="1">
          <mxGeometry x="570" y="20" width="290" height="60" as="geometry" />
        </mxCell>
        <mxCell id="OltJJ1d4q_nxjUxmyhaT-4" value="T-box（华为）" style="rounded=0;whiteSpace=wrap;html=1;" parent="1" vertex="1">
          <mxGeometry x="120" y="150" width="120" height="40" as="geometry" />
        </mxCell>
        <mxCell id="BN9lfCe1FpGiWTZNb-uB-3" value="活动热度统计（评论、点赞、收藏、浏览）" style="rounded=0;whiteSpace=wrap;html=1;" vertex="1" parent="1">
          <mxGeometry x="40" y="300" width="230" height="40" as="geometry" />
        </mxCell>
        <mxCell id="BN9lfCe1FpGiWTZNb-uB-4" value="活动参与人数统计" style="rounded=0;whiteSpace=wrap;html=1;" vertex="1" parent="1">
          <mxGeometry x="330" y="300" width="180" height="40" as="geometry" />
        </mxCell>
        <mxCell id="BN9lfCe1FpGiWTZNb-uB-6" value="（预售、试驾、预售转常规）" style="rounded=0;whiteSpace=wrap;html=1;" vertex="1" parent="1">
          <mxGeometry x="20" y="430" width="180" height="40" as="geometry" />
        </mxCell>
        <mxCell id="BN9lfCe1FpGiWTZNb-uB-7" value="发起支付、整车下单" style="rounded=0;whiteSpace=wrap;html=1;" vertex="1" parent="1">
          <mxGeometry x="20" y="480" width="180" height="40" as="geometry" />
        </mxCell>
        <mxCell id="BN9lfCe1FpGiWTZNb-uB-9" value="&lt;h1&gt;&lt;font style=&quot;font-size: 22px ; font-weight: normal&quot;&gt;整车商城&lt;/font&gt;&lt;/h1&gt;" style="text;html=1;strokeColor=none;fillColor=none;spacing=5;spacingTop=-20;whiteSpace=wrap;overflow=hidden;rounded=0;fontSize=20;" vertex="1" parent="1">
          <mxGeometry x="15" y="360" width="170" height="60" as="geometry" />
        </mxCell>
        <mxCell id="BN9lfCe1FpGiWTZNb-uB-10" value="&lt;h1&gt;&lt;font style=&quot;font-size: 22px ; font-weight: normal&quot;&gt;积分商城&lt;/font&gt;&lt;/h1&gt;" style="text;html=1;strokeColor=none;fillColor=none;spacing=5;spacingTop=-20;whiteSpace=wrap;overflow=hidden;rounded=0;fontSize=20;" vertex="1" parent="1">
          <mxGeometry x="310" y="360" width="170" height="60" as="geometry" />
        </mxCell>
        <mxCell id="BN9lfCe1FpGiWTZNb-uB-12" value="" style="endArrow=none;dashed=1;html=1;rounded=0;" edge="1" parent="1">
          <mxGeometry width="50" height="50" relative="1" as="geometry">
            <mxPoint x="310" y="530" as="sourcePoint" />
            <mxPoint x="310" y="240" as="targetPoint" />
            <Array as="points">
              <mxPoint x="310" y="320" />
            </Array>
          </mxGeometry>
        </mxCell>
        <mxCell id="BN9lfCe1FpGiWTZNb-uB-14" value="积分下单统计" style="rounded=0;whiteSpace=wrap;html=1;" vertex="1" parent="1">
          <mxGeometry x="340" y="430" width="180" height="40" as="geometry" />
        </mxCell>
        <mxCell id="BN9lfCe1FpGiWTZNb-uB-15" value="现金支付" style="rounded=0;whiteSpace=wrap;html=1;" vertex="1" parent="1">
          <mxGeometry x="340" y="480" width="180" height="40" as="geometry" />
        </mxCell>
        <mxCell id="BN9lfCe1FpGiWTZNb-uB-16" value="站内信统计" style="rounded=0;whiteSpace=wrap;html=1;" vertex="1" parent="1">
          <mxGeometry x="324" y="110" width="180" height="40" as="geometry" />
        </mxCell>
      </root>
    </mxGraphModel>
  </diagram>
</mxfile>
